0
SECTION
2
HEADER
9
$INSUNITS
70
4
9
$ACADVER
1
AC1014
9
$HANDSEED
5
FFFF
0
ENDSEC
0
SECTION
2
TABLES
0
TABLE
2
VPORT
5
8
100
AcDbSymbolTable
0
ENDTAB
0
TABLE
2
LTYPE
5
5
100
AcDbSymbolTable
0
LTYPE
5
14
100
AcDbSymbolTableRecord
100
AcDbLinetypeTableRecord
2
BYBLOCK
70
0
0
LTYPE
5
15
100
AcDbSymbolTableRecord
100
AcDbLinetypeTableRecord
2
BYLAYER
70
0
0
ENDTAB
0
TABLE
2
LAYER
5
2
100
AcDbSymbolTable
70
2
0
LAYER
5
50
100
AcDbSymbolTableRecord
100
AcDbLayerTableRecord
2
0
70
0
6
CONTINUOUS
0
ENDTAB
0
TABLE
2
STYLE
5
3
100
AcDbSymbolTable
70
1
0
STYLE
5
11
100
AcDbSymbolTableRecord
100
AcDbTextStyleTableRecord
2
STANDARD
70
0
0
ENDTAB
0
TABLE
2
VIEW
5
6
100
AcDbSymbolTable
70
0
0
ENDTAB
0
TABLE
2
UCS
5
7
100
AcDbSymbolTable
70
0
0
ENDTAB
0
TABLE
2
APPID
5
9
100
AcDbSymbolTable
70
2
0
APPID
5
12
100
AcDbSymbolTableRecord
100
AcDbRegAppTableRecord
2
ACAD
70
0
0
ENDTAB
0
TABLE
2
DIMSTYLE
5
A
100
AcDbSymbolTable
70
1
0
ENDTAB
0
TABLE
2
BLOCK_RECORD
5
1
100
AcDbSymbolTable
70
1
0
BLOCK_RECORD
5
1F
100
AcDbSymbolTableRecord
100
AcDbBlockTableRecord
2
*MODEL_SPACE
0
BLOCK_RECORD
5
1B
100
AcDbSymbolTableRecord
100
AcDbBlockTableRecord
2
*PAPER_SPACE
0
ENDTAB
0
ENDSEC
0
SECTION
2
BLOCKS
0
BLOCK
5
20
100
AcDbEntity
100
AcDbBlockBegin
2
*MODEL_SPACE
0
ENDBLK
5
21
100
AcDbEntity
100
AcDbBlockEnd
0
BLOCK
5
1C
100
AcDbEntity
100
AcDbBlockBegin
2
*PAPER_SPACE
0
ENDBLK
5
1D
100
AcDbEntity
100
AcDbBlockEnd
0
ENDSEC
0
SECTION
2
ENTITIES
0
LWPOLYLINE
5
100
100
AcDbEntity
8
0
100
AcDbPolyline
90
4
70
1
43
0.0
10
-12.350000000001017
20
8.5
10
-12.350000000001017
20
4.5
10
-7.8500000000010148
20
4.5
10
-7.8500000000010148
20
8.5
0
CIRCLE
5
101
100
AcDbEntity
8
0
100
AcDbCircle
10
15.285000000023555
20
10.5
30
0
40
0.80000000000000071
210
0
220
-0
230
1
0
CIRCLE
5
102
100
AcDbEntity
8
0
100
AcDbCircle
10
-15.28500000001573
20
10.5
30
0
40
0.80000000000000071
210
0
220
-0
230
1
0
LWPOLYLINE
5
103
100
AcDbEntity
8
0
100
AcDbPolyline
90
52
70
1
43
0.0
10
0.79999999999979643
20
0
10
0.79999999999980975
20
0.90000000000110658
10
1.4999999999998836
20
0.90000000000084679
10
1.4999999999999813
20
2.1000000000008479
10
-1.5000000000000213
20
2.1000000000011076
10
-1.5000000000001013
20
0.90000000000110658
10
-0.80000000000002736
20
0.90000000000111768
10
-0.80000000000020499
20
1.1102230246251565e-14
10
-4.2849999999640271
20
0
10
-4.2849999999640271
20
-4.0000000000000018
10
-8.7849999999640556
20
-4.0000000000000018
10
-8.7849999999640289
20
0
10
-17.284999999971625
20
0
10
-17.285000000015717
20
4.5000000000000151
10
-13.285000000014826
20
4.5
10
-13.285000000014595
20
8.9999999999999964
10
-17.285000000016634
20
9
10
-17.285000000017238
20
12.000000000000004
10
-13.285000000014444
20
11.999999999999947
10
-13.285000000014213
20
16.5
10
-17.285000000018151
20
16.500000000000043
10
-17.28500000001906
20
21
10
-8.7849999999640289
20
21
10
-8.7849999999640378
20
25
10
-4.284999999964036
20
25
10
-4.2849999999640271
20
21
10
-0.79999999997237392
20
21
10
-0.79999999997265592
20
20.099999999999984
10
-1.4999999999727742
20
20.09999999999998
10
-1.4999999999727298
20
18.899999999999977
10
1.5000000000272706
20
18.899999999999999
10
1.500000000027466
20
20.099999999999998
10
0.8000000000273455
20
20.099999999999994
10
0.80000000002762528
20
21
10
4.2850000000224808
20
21
10
4.2850000000224746
20
25
10
8.7850000000222792
20
25
10
8.7850000000222863
20
21
10
17.285000000023516
20
21
10
17.28500000002327
20
16.499999999999957
10
13.285000000023901
20
16.5
10
13.285000000024095
20
11.999999999999989
10
17.285000000023029
20
11.999999999999499
10
17.285000000022869
20
9.0000000000000284
10
13.285000000024223
20
9.000000000000087
10
13.285000000024414
20
4.5
10
17.285000000022627
20
4.5000000000000018
10
17.285000000022389
20
0
10
8.7850000000222863
20
0
10
8.7850000000222614
20
-3.9999999999999991
10
4.2850000000224515
20
-4.0000000000000018
10
4.2850000000224808
20
0
0
ENDSEC
0
SECTION
2
OBJECTS
0
DICTIONARY
5
C
100
AcDbDictionary
3
ACAD_GROUP
350
D
3
ACAD_MLINESTYLE
350
17
0
DICTIONARY
5
D
100
AcDbDictionary
0
DICTIONARY
5
1A
330
C
100
AcDbDictionary
0
DICTIONARY
5
17
100
AcDbDictionary
0
ENDSEC
0
EOF
