0
SECTION
2
HEADER
9
$INSUNITS
70
4
9
$ACADVER
1
AC1014
9
$HANDSEED
5
FFFF
0
ENDSEC
0
SECTION
2
TABLES
0
TABLE
2
VPORT
5
8
100
AcDbSymbolTable
0
ENDTAB
0
TABLE
2
LTYPE
5
5
100
AcDbSymbolTable
0
LTYPE
5
14
100
AcDbSymbolTableRecord
100
AcDbLinetypeTableRecord
2
BYBLOCK
70
0
0
LTYPE
5
15
100
AcDbSymbolTableRecord
100
AcDbLinetypeTableRecord
2
BYLAYER
70
0
0
ENDTAB
0
TABLE
2
LAYER
5
2
100
AcDbSymbolTable
70
2
0
LAYER
5
50
100
AcDbSymbolTableRecord
100
AcDbLayerTableRecord
2
0
70
0
6
CONTINUOUS
0
ENDTAB
0
TABLE
2
STYLE
5
3
100
AcDbSymbolTable
70
1
0
STYLE
5
11
100
AcDbSymbolTableRecord
100
AcDbTextStyleTableRecord
2
STANDARD
70
0
0
ENDTAB
0
TABLE
2
VIEW
5
6
100
AcDbSymbolTable
70
0
0
ENDTAB
0
TABLE
2
UCS
5
7
100
AcDbSymbolTable
70
0
0
ENDTAB
0
TABLE
2
APPID
5
9
100
AcDbSymbolTable
70
2
0
APPID
5
12
100
AcDbSymbolTableRecord
100
AcDbRegAppTableRecord
2
ACAD
70
0
0
ENDTAB
0
TABLE
2
DIMSTYLE
5
A
100
AcDbSymbolTable
70
1
0
ENDTAB
0
TABLE
2
BLOCK_RECORD
5
1
100
AcDbSymbolTable
70
1
0
BLOCK_RECORD
5
1F
100
AcDbSymbolTableRecord
100
AcDbBlockTableRecord
2
*MODEL_SPACE
0
BLOCK_RECORD
5
1B
100
AcDbSymbolTableRecord
100
AcDbBlockTableRecord
2
*PAPER_SPACE
0
ENDTAB
0
ENDSEC
0
SECTION
2
BLOCKS
0
BLOCK
5
20
100
AcDbEntity
100
AcDbBlockBegin
2
*MODEL_SPACE
0
ENDBLK
5
21
100
AcDbEntity
100
AcDbBlockEnd
0
BLOCK
5
1C
100
AcDbEntity
100
AcDbBlockBegin
2
*PAPER_SPACE
0
ENDBLK
5
1D
100
AcDbEntity
100
AcDbBlockEnd
0
ENDSEC
0
SECTION
2
ENTITIES
0
LWPOLYLINE
5
100
100
AcDbEntity
8
0
100
AcDbPolyline
90
20
70
1
43
0.0
10
12.349999999997703
20
26.499999999936676
10
13.285000000022286
20
26.49999999993603
10
13.28500000004863
20
-12.850000000015358
10
17.285000000007432
20
-12.850000000010606
10
17.28500000000588
20
-17.350000000010724
10
13.285000000051642
20
-17.350000000010724
10
13.285000000057767
20
-26.500000000045539
10
-7.8500000000010139
20
-26.500000000022901
10
-7.8500000000010139
20
-30.500000000045855
10
-12.350000000001016
20
-30.500000000045915
10
-12.350000000001016
20
-26.500000000018087
10
-13.284999999971658
20
-26.500000000017081
10
-13.284999999965992
20
12.849999999992491
10
-17.284999999971625
20
12.849999999993479
10
-17.284999999971625
20
17.349999999993486
10
-13.284999999965343
20
17.349999999992495
10
-13.284999999964029
20
26.499999999954468
10
7.8499999999977019
20
26.499999999939799
10
7.8499999999977019
20
30.499999999942865
10
12.349999999997719
20
30.499999999940787
0
LWPOLYLINE
5
101
100
AcDbEntity
8
0
100
AcDbPolyline
90
4
70
1
43
0.0
10
-3.889957936627285
20
10.129666554397275
10
3.9100420633727149
20
10.129666554397275
10
3.9100420633727149
20
24.129666554397279
10
-3.889957936627285
20
24.129666554397279
0
LWPOLYLINE
5
102
100
AcDbEntity
8
0
100
AcDbPolyline
90
4
70
1
43
0.0
10
12.78500000004863
20
22.319999999977107
10
10.26500000004863
20
22.319999999977107
10
10.26500000004863
20
-23.5200000000229
10
12.78500000004863
20
-23.5200000000229
0
LWPOLYLINE
5
103
100
AcDbEntity
8
0
100
AcDbPolyline
90
4
70
1
43
0.0
10
-10.26499999996599
20
-23.520000000022904
10
-10.26499999996599
20
22.319999999977099
10
-12.784999999965992
20
22.319999999977099
10
-12.784999999965992
20
-23.520000000022904
0
ENDSEC
0
SECTION
2
OBJECTS
0
DICTIONARY
5
C
100
AcDbDictionary
3
ACAD_GROUP
350
D
3
ACAD_MLINESTYLE
350
17
0
DICTIONARY
5
D
100
AcDbDictionary
0
DICTIONARY
5
1A
330
C
100
AcDbDictionary
0
DICTIONARY
5
17
100
AcDbDictionary
0
ENDSEC
0
EOF
