0
SECTION
2
HEADER
9
$INSUNITS
70
4
9
$ACADVER
1
AC1014
9
$HANDSEED
5
FFFF
0
ENDSEC
0
SECTION
2
TABLES
0
TABLE
2
VPORT
5
8
100
AcDbSymbolTable
0
ENDTAB
0
TABLE
2
LTYPE
5
5
100
AcDbSymbolTable
0
LTYPE
5
14
100
AcDbSymbolTableRecord
100
AcDbLinetypeTableRecord
2
BYBLOCK
70
0
0
LTYPE
5
15
100
AcDbSymbolTableRecord
100
AcDbLinetypeTableRecord
2
BYLAYER
70
0
0
ENDTAB
0
TABLE
2
LAYER
5
2
100
AcDbSymbolTable
70
2
0
LAYER
5
50
100
AcDbSymbolTableRecord
100
AcDbLayerTableRecord
2
0
70
0
6
CONTINUOUS
0
ENDTAB
0
TABLE
2
STYLE
5
3
100
AcDbSymbolTable
70
1
0
STYLE
5
11
100
AcDbSymbolTableRecord
100
AcDbTextStyleTableRecord
2
STANDARD
70
0
0
ENDTAB
0
TABLE
2
VIEW
5
6
100
AcDbSymbolTable
70
0
0
ENDTAB
0
TABLE
2
UCS
5
7
100
AcDbSymbolTable
70
0
0
ENDTAB
0
TABLE
2
APPID
5
9
100
AcDbSymbolTable
70
2
0
APPID
5
12
100
AcDbSymbolTableRecord
100
AcDbRegAppTableRecord
2
ACAD
70
0
0
ENDTAB
0
TABLE
2
DIMSTYLE
5
A
100
AcDbSymbolTable
70
1
0
ENDTAB
0
TABLE
2
BLOCK_RECORD
5
1
100
AcDbSymbolTable
70
1
0
BLOCK_RECORD
5
1F
100
AcDbSymbolTableRecord
100
AcDbBlockTableRecord
2
*MODEL_SPACE
0
BLOCK_RECORD
5
1B
100
AcDbSymbolTableRecord
100
AcDbBlockTableRecord
2
*PAPER_SPACE
0
ENDTAB
0
ENDSEC
0
SECTION
2
BLOCKS
0
BLOCK
5
20
100
AcDbEntity
100
AcDbBlockBegin
2
*MODEL_SPACE
0
ENDBLK
5
21
100
AcDbEntity
100
AcDbBlockEnd
0
BLOCK
5
1C
100
AcDbEntity
100
AcDbBlockBegin
2
*PAPER_SPACE
0
ENDBLK
5
1D
100
AcDbEntity
100
AcDbBlockEnd
0
ENDSEC
0
SECTION
2
ENTITIES
0
LWPOLYLINE
5
100
100
AcDbEntity
8
0
100
AcDbPolyline
90
4
70
1
43
0.0
10
-17.349999999993486
20
8.5
10
-17.349999999993486
20
4.5
10
-12.849999999993479
20
4.5
10
-12.849999999993479
20
8.5
0
LWPOLYLINE
5
101
100
AcDbEntity
8
0
100
AcDbPolyline
90
68
70
1
43
0.0
10
-17.499999999954554
20
21
10
-0.79999999996384252
20
21
10
-0.79999999995848881
20
20.099999999999973
10
-1.4999999999558187
20
20.099999999995369
10
-1.4999999999540636
20
18.900000000000002
10
1.5000000000456049
20
18.899999999999991
10
1.5000000000452574
20
20.099999999999987
10
0.80000000004372618
20
20.099999999999973
10
0.80000000004506688
20
21
10
17.500000000017085
20
21
10
17.500000000017089
20
25.000000000000021
10
22.000000000018964
20
25.000000000000021
10
22.000000000018947
20
21
10
26.5
20
21
10
26.5
20
16.500000000000121
10
30.500000000045983
20
16.500000000000099
10
30.500000000045983
20
11.999999999999995
10
26.5
20
12.000000000000004
10
26.5
20
11.299999999999802
10
25.600000000045988
20
11.299999999999802
10
25.600000000045988
20
11.999999999999972
10
24.400000000045985
20
11.999999999999972
10
24.400000000045985
20
8.9999999999999716
10
25.600000000046009
20
8.9999999999999716
10
25.600000000045988
20
9.6999999999998021
10
26.5
20
9.6999999999982869
10
26.5
20
9
10
30.500000000045979
20
8.9999999999999964
10
30.500000000045979
20
4.5000000000000107
10
26.5
20
4.5000000000000124
10
26.5
20
0
10
22.000000000018947
20
0
10
22.000000000018947
20
-3.9999999999999414
10
17.500000000017085
20
-3.9999999999999458
10
17.500000000017085
20
0
10
0.80000000000002347
20
0
10
0.80000000000002269
20
0.9000000000000119
10
1.5000000000000231
20
0.9000000000000119
10
1.5000000000000224
20
2.100000000000013
10
-1.499999999999978
20
2.100000000000013
10
-1.499999999999978
20
0.9000000000000119
10
-0.79999999999997762
20
0.9000000000000119
10
-0.79999999999997629
20
0
10
-17.499999999954554
20
0
10
-17.499999999954554
20
-3.9999999999999902
10
-21.999999999954465
20
-3.9999999999999947
10
-21.999999999954465
20
0
10
-26.5
20
0
10
-26.5
20
4.5000000000000124
10
-30.499999999954468
20
4.4999999999987477
10
-30.499999999954468
20
8.9999999999987335
10
-26.5
20
9
10
-26.5
20
9.7000000000043141
10
-25.599999999956154
20
9.7000000000045006
10
-25.599999999956129
20
8.999999999999881
10
-24.399999999954471
20
8.9999999999999964
10
-24.399999999954471
20
12.000000000000002
10
-25.599999999954473
20
12.000000000000002
10
-25.599999999954473
20
11.299999999994558
10
-26.5
20
11.299999999987024
10
-26.5
20
12.000000000000004
10
-30.499999999954468
20
11.999999999999137
10
-30.499999999954468
20
16.499999999999275
10
-26.5
20
16.500000000000121
10
-26.5
20
21
10
-21.999999999954465
20
21
10
-21.999999999954465
20
25.000000000000004
10
-17.49999999995455
20
25.000000000000004
0
ENDSEC
0
SECTION
2
OBJECTS
0
DICTIONARY
5
C
100
AcDbDictionary
3
ACAD_GROUP
350
D
3
ACAD_MLINESTYLE
350
17
0
DICTIONARY
5
D
100
AcDbDictionary
0
DICTIONARY
5
1A
330
C
100
AcDbDictionary
0
DICTIONARY
5
17
100
AcDbDictionary
0
ENDSEC
0
EOF
