0
SECTION
2
HEADER
9
$INSUNITS
70
4
9
$ACADVER
1
AC1014
9
$HANDSEED
5
FFFF
0
ENDSEC
0
SECTION
2
TABLES
0
TABLE
2
VPORT
5
8
100
AcDbSymbolTable
0
ENDTAB
0
TABLE
2
LTYPE
5
5
100
AcDbSymbolTable
0
LTYPE
5
14
100
AcDbSymbolTableRecord
100
AcDbLinetypeTableRecord
2
BYBLOCK
70
0
0
LTYPE
5
15
100
AcDbSymbolTableRecord
100
AcDbLinetypeTableRecord
2
BYLAYER
70
0
0
ENDTAB
0
TABLE
2
LAYER
5
2
100
AcDbSymbolTable
70
2
0
LAYER
5
50
100
AcDbSymbolTableRecord
100
AcDbLayerTableRecord
2
0
70
0
6
CONTINUOUS
0
ENDTAB
0
TABLE
2
STYLE
5
3
100
AcDbSymbolTable
70
1
0
STYLE
5
11
100
AcDbSymbolTableRecord
100
AcDbTextStyleTableRecord
2
STANDARD
70
0
0
ENDTAB
0
TABLE
2
VIEW
5
6
100
AcDbSymbolTable
70
0
0
ENDTAB
0
TABLE
2
UCS
5
7
100
AcDbSymbolTable
70
0
0
ENDTAB
0
TABLE
2
APPID
5
9
100
AcDbSymbolTable
70
2
0
APPID
5
12
100
AcDbSymbolTableRecord
100
AcDbRegAppTableRecord
2
ACAD
70
0
0
ENDTAB
0
TABLE
2
DIMSTYLE
5
A
100
AcDbSymbolTable
70
1
0
ENDTAB
0
TABLE
2
BLOCK_RECORD
5
1
100
AcDbSymbolTable
70
1
0
BLOCK_RECORD
5
1F
100
AcDbSymbolTableRecord
100
AcDbBlockTableRecord
2
*MODEL_SPACE
0
BLOCK_RECORD
5
1B
100
AcDbSymbolTableRecord
100
AcDbBlockTableRecord
2
*PAPER_SPACE
0
ENDTAB
0
ENDSEC
0
SECTION
2
BLOCKS
0
BLOCK
5
20
100
AcDbEntity
100
AcDbBlockBegin
2
*MODEL_SPACE
0
ENDBLK
5
21
100
AcDbEntity
100
AcDbBlockEnd
0
BLOCK
5
1C
100
AcDbEntity
100
AcDbBlockBegin
2
*PAPER_SPACE
0
ENDBLK
5
1D
100
AcDbEntity
100
AcDbBlockEnd
0
ENDSEC
0
SECTION
2
ENTITIES
0
CIRCLE
5
100
100
AcDbEntity
8
0
100
AcDbCircle
10
2.7241393169008503e-11
20
28.499999999945871
30
0
40
0.80000000000000016
210
0
220
-0
230
1
0
CIRCLE
5
101
100
AcDbEntity
8
0
100
AcDbCircle
10
15.285000000025947
20
-5.0217607849845081e-11
30
0
40
0.80000000000000071
210
0
220
-0
230
1
0
CIRCLE
5
102
100
AcDbEntity
8
0
100
AcDbCircle
10
-15.284999999969735
20
-3.461009256966463e-11
30
0
40
0.80000000000000071
210
0
220
-0
230
1
0
CIRCLE
5
103
100
AcDbEntity
8
0
100
AcDbCircle
10
2.8971564730584347e-11
20
-28.500000000038533
30
0
40
0.80000000000000016
210
0
220
-0
230
1
0
LWPOLYLINE
5
104
100
AcDbEntity
8
0
100
AcDbPolyline
90
36
70
1
43
0.0
10
-17.284999999971625
20
17.499999999954554
10
-13.284999999965322
20
17.499999999954465
10
-13.284999999964676
20
21.999999999954476
10
-17.284999999971625
20
21.999999999954465
10
-17.284999999971625
20
30.499999999954468
10
-8.7849999999640254
20
30.499999999950521
10
-8.7849999999640307
20
26.499999999951346
10
-4.2849999999640271
20
26.499999999948223
10
-4.284999999964036
20
30.499999999948436
10
4.2850000000222828
20
30.499999999944546
10
4.2850000000224808
20
26.499999999942272
10
8.7850000000222845
20
26.499999999939149
10
8.7850000000222899
20
30.499999999942457
10
17.285000000022389
20
30.49999999993851
10
17.285000000019458
20
21.99999999993603
10
13.285000000025303
20
21.999999999936051
10
13.285000000028313
20
17.499999999936108
10
17.285000000017906
20
17.49999999993603
10
17.285000000005827
20
-17.500000000045535
10
13.285000000051744
20
-17.50000000004701
10
13.285000000054755
20
-22.000000000045539
10
17.285000000004278
20
-22.000000000043293
10
17.285000000001343
20
-30.500000000045546
10
8.7850000000533619
20
-30.500000000045652
10
8.7850000000585986
20
-26.500000000040789
10
4.2850000000578596
20
-26.500000000035936
10
4.2850000000570514
20
-30.500000000045709
10
-4.2849999999759403
20
-30.500000000045816
10
-4.2849999999756765
20
-26.500000000026688
10
-8.7849999999717365
20
-26.500000000021835
10
-8.7849999999760424
20
-30.500000000045873
10
-17.284999999971628
20
-30.500000000045979
10
-17.284999999971628
20
-22.000000000018947
10
-13.284999999971014
20
-22.000000000017081
10
-13.284999999970367
20
-17.500000000017153
10
-17.284999999971628
20
-17.500000000017089
0
ENDSEC
0
SECTION
2
OBJECTS
0
DICTIONARY
5
C
100
AcDbDictionary
3
ACAD_GROUP
350
D
3
ACAD_MLINESTYLE
350
17
0
DICTIONARY
5
D
100
AcDbDictionary
0
DICTIONARY
5
1A
330
C
100
AcDbDictionary
0
DICTIONARY
5
17
100
AcDbDictionary
0
ENDSEC
0
EOF
